# xmcd
#
# Track frame offsets:
# 150
# 10912
# 22533
# 34510
# 46818
# 58910
# 73660
# 88462
# 99000
# 110401
# 119929
# 130562
# 146756
# 158738
# 172630
# 183573
# 194230
# 205829
# 219795
# 230747
# 240217
# 249702
# 261366
# 272654
#
# Disc length: 3822 seconds
#
# Revision: 0
# Processed by: cddbd v1.5.2PL0 Copyright (c) Steve Scherf et al.
# Submitted via: Audion 3.0.2 (http://www.panic.com/audion/)
#
DISCID=500eec18
DTITLE=Assimil - Assimil_CD3
DYEAR=1900
DGENRE=
TTITLE0=Lekcija 64
TTITLE1=Lekcija 65
TTITLE2=Lekcija 66
TTITLE3=Lekcija 67
TTITLE4=Lekcija 68
TTITLE5=Lekcija 69
TTITLE6=Lekcija 71
TTITLE7=Lekcija 72
TTITLE8=Lekcija 73
TTITLE9=Lekcija 74
TTITLE10=Lekcija 75
TTITLE11=Lekcija 76
TTITLE12=Lekcija 78
TTITLE13=Lekcija 79
TTITLE14=Lekcija 80
TTITLE15=Lekcija 81
TTITLE16=Lekcija 82
TTITLE17=Lekcija 83
TTITLE18=Lekcija 85
TTITLE19=Lekcija 86
TTITLE20=Lekcija 87
TTITLE21=Lekcija 88
TTITLE22=Lekcija 89
TTITLE23=Lekcija 90
EXTD=
EXTT0=
EXTT1=
EXTT2=
EXTT3=
EXTT4=
EXTT5=
EXTT6=
EXTT7=
EXTT8=
EXTT9=
EXTT10=
EXTT11=
EXTT12=
EXTT13=
EXTT14=
EXTT15=
EXTT16=
EXTT17=
EXTT18=
EXTT19=
EXTT20=
EXTT21=
EXTT22=
EXTT23=
PLAYORDER=
